<?xml version="1.0" encoding="utf-8"?>
<!-- Generator: Adobe Illustrator 25.2.1, SVG Export Plug-In . SVG Version: 6.00 Build 0)  -->
<svg version="1.1" id="Layer_1" xmlns="http://www.w3.org/2000/svg" xmlns:xlink="http://www.w3.org/1999/xlink" x="0px" y="0px"
	 width="61px" height="61px" viewBox="0 0 61 61" style="enable-background:new 0 0 61 61;" xml:space="preserve">
<style type="text/css">
	.st0{fill:url(#SVGID_1_);stroke:#FFFFFF;stroke-miterlimit:10;}
	.st1{fill:#FFFFFF;}
	.st2{fill:#FFFFFF;stroke:#FFFFFF;stroke-miterlimit:10;}
	.st3{fill:#14425D;}
	.st4{fill:#0D3549;}
</style>
<g>
	<linearGradient id="SVGID_1_" gradientUnits="userSpaceOnUse" x1="30.5" y1="1.559" x2="30.5" y2="33.6771">
		<stop  offset="0" style="stop-color:#14425D"/>
		<stop  offset="1" style="stop-color:#0D3549"/>
	</linearGradient>
	<path class="st0" d="M0.5,47.3V13.7c0-7.3,5.9-13.2,13.2-13.2h33.5c7.3,0,13.2,5.9,13.2,13.2v33.5c0,7.3-5.9,13.2-13.2,13.2H13.7
		C6.4,60.5,0.5,54.6,0.5,47.3z"/>
	<path class="st1" d="M27.9,22.2c0,0-7.9-3.2-17.1,0.6c-0.7-1.8-1.1-2.9-1.1-2.9S16.9,13.7,27.9,22.2z"/>
	<path class="st1" d="M34.3,19.6c0,0,5.6-8.8,14-8.4c-0.1,2.7-0.3,4.2-0.3,4.2S41.4,14.2,34.3,19.6z"/>
	<path class="st1" d="M31.9,47.6l-1.4-22.9c-4.3-2.6-13.6-3.7-21.2,0.1c-0.4,1,5.2,24.7,5.2,25.2C17.8,46.8,27.2,44.6,31.9,47.6z"/>
	<path class="st1" d="M32.9,47.3c0,0-0.7-20.2-1-23.1c1.8-2.7,7.4-9,19.2-7.3c-0.1,7.7-1.3,25.8-1.3,25.8
		C46.1,39.1,35.2,42.4,32.9,47.3z"/>
</g>
</svg>
